{
    "asset" : {
        "generator" : "Khronos glTF Blender I/O v1.7.33",
        "version" : "2.0"
    },
    "scene" : 0,
    "scenes" : [
        {
            "name" : "Scene",
            "nodes" : [
                0
            ]
        }
    ],
    "nodes" : [
        {
            "mesh" : 0,
            "name" : "Cylinder.005",
            "rotation" : [
                -0.1830126941204071,
                -0.1830126941204071,
                -0.6830127239227295,
                0.6830127239227295
            ],
            "scale" : [
                1,
                1.1952022314071655,
                1
            ],
            "translation" : [
                -0.7429685592651367,
                3.7934775352478027,
                0.1427478790283203
            ]
        }
    ],
    "materials" : [
        {
            "doubleSided" : true,
            "name" : "Material.002",
            "pbrMetallicRoughness" : {
                "baseColorTexture" : {
                    "index" : 0
                },
                "metallicFactor" : 0,
                "roughnessFactor" : 0.5
            }
        },
        {
            "doubleSided" : true,
            "name" : "Material",
            "pbrMetallicRoughness" : {
                "baseColorTexture" : {
                    "index" : 1
                },
                "metallicFactor" : 0,
                "roughnessFactor" : 0.4000000059604645
            }
        },
        {
            "doubleSided" : true,
            "name" : "Material.003",
            "pbrMetallicRoughness" : {
                "baseColorTexture" : {
                    "index" : 2
                },
                "metallicFactor" : 0,
                "roughnessFactor" : 0.5
            }
        },
        {
            "doubleSided" : true,
            "name" : "Material.001",
            "pbrMetallicRoughness" : {
                "baseColorTexture" : {
                    "index" : 3
                },
                "metallicFactor" : 0,
                "roughnessFactor" : 0.5
            }
        }
    ],
    "meshes" : [
        {
            "name" : "Cylinder.005",
            "primitives" : [
                {
                    "attributes" : {
                        "POSITION" : 0,
                        "NORMAL" : 1,
                        "TEXCOORD_0" : 2
                    },
                    "indices" : 3,
                    "material" : 0
                },
                {
                    "attributes" : {
                        "POSITION" : 4,
                        "NORMAL" : 5,
                        "TEXCOORD_0" : 6
                    },
                    "indices" : 7,
                    "material" : 1
                },
                {
                    "attributes" : {
                        "POSITION" : 8,
                        "NORMAL" : 9,
                        "TEXCOORD_0" : 10
                    },
                    "indices" : 11,
                    "material" : 2
                },
                {
                    "attributes" : {
                        "POSITION" : 12,
                        "NORMAL" : 13,
                        "TEXCOORD_0" : 14
                    },
                    "indices" : 15,
                    "material" : 3
                }
            ]
        }
    ],
    "textures" : [
        {
            "sampler" : 0,
            "source" : 0
        },
        {
            "sampler" : 0,
            "source" : 0
        },
        {
            "sampler" : 0,
            "source" : 0
        },
        {
            "sampler" : 0,
            "source" : 0
        }
    ],
    "images" : [
        {
            "bufferView" : 4,
            "mimeType" : "image/png",
            "name" : "Building_AO"
        }
    ],
    "accessors" : [
        {
            "bufferView" : 0,
            "componentType" : 5126,
            "count" : 18,
            "max" : [
                2.045475482940674,
                1,
                2.54286789894104
            ],
            "min" : [
                -1.179450511932373,
                -1,
                -3.0428686141967773
            ],
            "type" : "VEC3"
        },
        {
            "bufferView" : 1,
            "componentType" : 5126,
            "count" : 18,
            "type" : "VEC3"
        },
        {
            "bufferView" : 2,
            "componentType" : 5126,
            "count" : 18,
            "type" : "VEC2"
        },
        {
            "bufferView" : 3,
            "componentType" : 5123,
            "count" : 24,
            "type" : "SCALAR"
        },
        {
            "bufferView" : 5,
            "componentType" : 5126,
            "count" : 48,
            "max" : [
                4.710291862487793,
                3.1316614151000977,
                1.2030384540557861
            ],
            "min" : [
                0.6307810544967651,
                -0.21505260467529297,
                -4.61637020111084
            ],
            "type" : "VEC3"
        },
        {
            "bufferView" : 6,
            "componentType" : 5126,
            "count" : 48,
            "type" : "VEC3"
        },
        {
            "bufferView" : 7,
            "componentType" : 5126,
            "count" : 48,
            "type" : "VEC2"
        },
        {
            "bufferView" : 8,
            "componentType" : 5123,
            "count" : 72,
            "type" : "SCALAR"
        },
        {
            "bufferView" : 9,
            "componentType" : 5126,
            "count" : 960,
            "max" : [
                4.204342842102051,
                0.9359092712402344,
                1.9693636894226074
            ],
            "min" : [
                -1.0792722702026367,
                0.30734241008758545,
                -4.197310447692871
            ],
            "type" : "VEC3"
        },
        {
            "bufferView" : 10,
            "componentType" : 5126,
            "count" : 960,
            "type" : "VEC3"
        },
        {
            "bufferView" : 11,
            "componentType" : 5126,
            "count" : 960,
            "type" : "VEC2"
        },
        {
            "bufferView" : 12,
            "componentType" : 5123,
            "count" : 1860,
            "type" : "SCALAR"
        },
        {
            "bufferView" : 13,
            "componentType" : 5126,
            "count" : 120,
            "max" : [
                4.468761444091797,
                -0.0005166530609130859,
                2.681532382965088
            ],
            "min" : [
                -2.1420979499816895,
                -4.2526702880859375,
                -4.211971759796143
            ],
            "type" : "VEC3"
        },
        {
            "bufferView" : 14,
            "componentType" : 5126,
            "count" : 120,
            "type" : "VEC3"
        },
        {
            "bufferView" : 15,
            "componentType" : 5126,
            "count" : 120,
            "type" : "VEC2"
        },
        {
            "bufferView" : 16,
            "componentType" : 5123,
            "count" : 180,
            "type" : "SCALAR"
        }
    ],
    "bufferViews" : [
        {
            "buffer" : 0,
            "byteLength" : 216,
            "byteOffset" : 0
        },
        {
            "buffer" : 0,
            "byteLength" : 216,
            "byteOffset" : 216
        },
        {
            "buffer" : 0,
            "byteLength" : 144,
            "byteOffset" : 432
        },
        {
            "buffer" : 0,
            "byteLength" : 48,
            "byteOffset" : 576
        },
        {
            "buffer" : 0,
            "byteLength" : 822770,
            "byteOffset" : 624
        },
        {
            "buffer" : 0,
            "byteLength" : 576,
            "byteOffset" : 823396
        },
        {
            "buffer" : 0,
            "byteLength" : 576,
            "byteOffset" : 823972
        },
        {
            "buffer" : 0,
            "byteLength" : 384,
            "byteOffset" : 824548
        },
        {
            "buffer" : 0,
            "byteLength" : 144,
            "byteOffset" : 824932
        },
        {
            "buffer" : 0,
            "byteLength" : 11520,
            "byteOffset" : 825076
        },
        {
            "buffer" : 0,
            "byteLength" : 11520,
            "byteOffset" : 836596
        },
        {
            "buffer" : 0,
            "byteLength" : 7680,
            "byteOffset" : 848116
        },
        {
            "buffer" : 0,
            "byteLength" : 3720,
            "byteOffset" : 855796
        },
        {
            "buffer" : 0,
            "byteLength" : 1440,
            "byteOffset" : 859516
        },
        {
            "buffer" : 0,
            "byteLength" : 1440,
            "byteOffset" : 860956
        },
        {
            "buffer" : 0,
            "byteLength" : 960,
            "byteOffset" : 862396
        },
        {
            "buffer" : 0,
            "byteLength" : 360,
            "byteOffset" : 863356
        }
    ],
    "samplers" : [
        {
            "magFilter" : 9729,
            "minFilter" : 9987
        }
    ],
    "buffers" : [
        {
            "byteLength" : 863716,
            "uri" : "data:application/octet-stream;base64,"
        }
    ]
}
